<?xml version="1.0" encoding="UTF-8" standalone="no"?>
<!-- Created with Inkscape (http://www.inkscape.org/) -->

<svg
   width="320"
   height="320"
   viewBox="0 0 320 320"
   version="1.1"
   id="svg1"
   xml:space="preserve"
   inkscape:version="1.4.4 (dcaf3e7d9e, 2026-05-05)"
   sodipodi:docname="tauri.svg"
   xmlns:inkscape="http://www.inkscape.org/namespaces/inkscape"
   xmlns:sodipodi="http://sodipodi.sourceforge.net/DTD/sodipodi-0.dtd"
   xmlns="http://www.w3.org/2000/svg"
   xmlns:svg="http://www.w3.org/2000/svg"><sodipodi:namedview
     id="namedview1"
     pagecolor="#ffffff"
     bordercolor="#000000"
     borderopacity="0.25"
     inkscape:showpageshadow="2"
     inkscape:pageopacity="0.0"
     inkscape:pagecheckerboard="0"
     inkscape:deskcolor="#d1d1d1"
     inkscape:document-units="mm"
     inkscape:zoom="0.31387447"
     inkscape:cx="689.7662"
     inkscape:cy="332.93565"
     inkscape:window-width="1920"
     inkscape:window-height="1003"
     inkscape:window-x="0"
     inkscape:window-y="0"
     inkscape:window-maximized="1"
     inkscape:current-layer="g7" /><defs
     id="defs1" /><g
     inkscape:label="Layer 1"
     inkscape:groupmode="layer"
     id="layer1"
     transform="translate(308.27152,96.187714)"><g
       id="g7"
       transform="translate(-180.05384,8.1006669)"><path
         style="fill:#8b5cf6;fill-opacity:1"
         d="m 35.025627,163.56375 c 0.12668,-0.20498 2.016051,-0.1019 2.016051,0.10998 0,0.0568 -0.483276,0.10335 -1.073948,0.10335 -0.590671,0 -1.014618,-0.096 -0.942103,-0.21333 z m -127.273583,-0.34809 c -6.395962,-0.92952 -12.513884,-3.59781 -16.991284,-7.41063 -5.84912,-4.98094 -8.98803,-10.96984 -10.65977,-20.33837 -0.52342,-2.93325 -0.52357,-120.499235 -1.6e-4,-123.824997 1.88065,-11.94969158 10.39338,-21.955296 21.702867,-25.508862 5.001558,-1.571546 1.378394,-1.494137 66.324811,-1.41702 l 59.520462,0.07067 2.645833,0.741541 c 3.000694,0.840997 7.236668,2.774019 9.608464,4.384675 7.75476,5.2661572 12.736048,13.5405911 13.797826,22.919617 0.365748,3.230762 0.369101,107.088106 0.0036,111.217546 -0.482459,5.45072 -1.637909,9.61297 -4.115557,14.8254 -5.233431,11.00999 -14.64947,18.84494 -27.202709,22.63499 -6.667042,2.01289 -1.815305,1.86022 -60.486405,1.9034 -29.718405,0.0219 -53.226662,-0.0641 -54.147969,-0.19796 z m 83.3472579,-38.1339 c -0.4413377,-0.47294 -2.1052309,-2.34817 -3.6975399,-4.16718 -3.109623,-3.55235 -15.958732,-18.108 -33.840317,-38.334793 -6.114182,-6.916068 -11.229179,-12.579806 -11.366661,-12.586085 -0.235233,-0.01074 -4.681587,4.749107 -19.043647,20.386344 -3.353899,3.651684 -10.900487,11.843784 -16.770197,18.204664 -6.39876,6.9342 -10.6173,11.7083 -10.5351,11.92252 0.23183,0.60414 2.49243,2.00765 4.951712,3.07429 2.747228,1.19154 4.5663,1.74902 6.740885,2.06583 0.867461,0.12638 20.204074,0.2443 42.97025,0.26205 l 41.3930472,0.0323 z m 35.2267511,0.47048 c 7.9213,-1.28834 13.153747,-4.96625 14.799812,-10.40283 l 0.490906,-1.62135 -2.106888,-2.32601 C 23.744544,93.797057 16.330771,85.541139 2.2683635,69.730192 -0.2067281,66.947344 -1.0435546,66.203441 -1.9240328,66.003332 -3.2692046,65.69761 -2.736893,65.176125 -16.391827,80.176874 c -2.976397,3.269748 -6.832685,7.396286 -8.56953,9.170086 l -3.157899,3.22509 4.60078,5.236339 c 9.85254,11.213581 20.2731544,23.091531 22.4183605,25.553581 l 2.2476992,2.57969 11.3986103,-0.001 c 8.741673,-8.2e-4 11.953662,-0.0913 13.779859,-0.38836 z M -104.07614,109.27291 c 2.62714,-2.83766 11.304216,-12.243593 19.282395,-20.902082 18.383675,-19.951275 27.123229,-29.36875 27.254631,-29.36875 0.170723,0 2.125294,2.172211 8.219613,9.134863 12.362271,14.123677 16.604859,18.91097 16.75925,18.91097 0.08822,0 2.955763,-3.061156 6.372313,-6.802569 19.246283,-21.076319 18.0887523,-19.941686 21.2800109,-20.859057 2.3562161,-0.677327 5.05125676,-0.408851 7.2711856,0.724344 1.4522062,0.7413 2.2457429,1.467167 5.1663504,4.72578 1.8978364,2.117476 10.2371741,11.393632 18.5318611,20.61368 8.294687,9.220048 15.464508,17.191161 15.932936,17.713581 l 0.851686,0.94987 L 42.786699,58.34062 42.727307,12.567704 42.1162,10.59057 C 39.966989,3.637169 35.022918,-1.4476248 28.178137,-3.7442111 l -1.852084,-0.6214178 -58.539388,-0.069607 c -63.510498,-0.075518 -60.121006,-0.1470399 -63.818995,1.3466444 -6.14094,2.4804377 -10.58863,7.5778478 -12.50643,14.3333795 l -0.6009,2.116666 -0.0719,50.625369 c -0.0395,27.843953 0.025,50.584887 0.14345,50.535417 0.11844,-0.0495 2.36482,-2.41167 4.99196,-5.24933 z m 75.043168,-54.687519 c 0.257431,-0.06708 0.614618,-0.06267 0.79375,0.0098 0.179131,0.07248 -0.03149,0.127362 -0.468057,0.12197 -0.436562,-0.0054 -0.583124,-0.06469 -0.325693,-0.131774 z m 2.910416,0 c 0.257431,-0.06708 0.614619,-0.06267 0.79375,0.0098 0.179132,0.07248 -0.03149,0.127362 -0.468056,0.12197 -0.436563,-0.0054 -0.583125,-0.06469 -0.325694,-0.131774 z m 7.326095,-3.322375 c 1.096424,-1.168186 1.333974,-1.378239 1.333974,-1.179567 0,0.04246 -0.565547,0.608008 -1.256771,1.25677 l -1.256771,1.179568 z m -17.3316,-0.264583 -1.045884,-1.124479 1.124479,1.045884 c 1.045754,0.972661 1.246062,1.203074 1.045884,1.203074 -0.04323,0 -0.549243,-0.506016 -1.124479,-1.124479 z m 21.098404,-7.209896 c 0.0054,-0.436562 0.06469,-0.583125 0.131774,-0.325694 0.06708,0.257431 0.06267,0.614619 -0.0098,0.79375 -0.07248,0.179132 -0.127362,-0.03149 -0.12197,-0.468056 z m -24.591106,-1.058333 c 0.0029,-0.582084 0.05712,-0.789055 0.120406,-0.459936 0.06329,0.329118 0.06088,0.805368 -0.0053,1.058333 -0.06622,0.252965 -0.118003,-0.01631 -0.115066,-0.598397 z m 24.591106,-1.852084 c 0.0054,-0.436562 0.06469,-0.583124 0.131774,-0.325693 0.06708,0.257431 0.06267,0.614618 -0.0098,0.79375 -0.07248,0.179131 -0.127362,-0.03149 -0.12197,-0.468057 z m -24.372358,-0.551215 c 0.0127,-0.308224 0.07539,-0.370919 0.159852,-0.159852 0.07643,0.190996 0.06703,0.419199 -0.02089,0.507118 -0.08792,0.08792 -0.150453,-0.06835 -0.138964,-0.347266 z m 2.095778,-4.972638 c 0,-0.05494 0.20836,-0.263301 0.463021,-0.463021 0.419644,-0.329107 0.429002,-0.319749 0.09989,0.09989 -0.345644,0.440729 -0.562916,0.580887 -0.562916,0.363126 z m 19.810001,-0.363126 c -0.329108,-0.419644 -0.319749,-0.429002 0.0999,-0.09989 0.254661,0.19972 0.46302,0.408079 0.46302,0.463021 0,0.217761 -0.217272,0.0776 -0.562915,-0.363126 z m -2.240348,-2.248958 -0.504028,-0.595312 0.595312,0.504027 c 0.559447,0.473662 0.715762,0.686598 0.504028,0.686598 -0.05021,0 -0.318097,-0.267891 -0.595312,-0.595313 z m -15.188403,0.230834 c 0,-0.05494 0.20836,-0.263301 0.463021,-0.46302 0.419644,-0.329108 0.429002,-0.31975 0.09989,0.09989 -0.345644,0.44073 -0.562916,0.580887 -0.562916,0.363126 z m 5.506641,-2.726679 c 0.190996,-0.07643 0.419199,-0.06703 0.507118,0.02089 0.08792,0.08792 -0.06835,0.150453 -0.347266,0.138965 -0.308224,-0.0127 -0.370919,-0.07539 -0.159852,-0.159853 z m 4.233333,0 c 0.190996,-0.07643 0.419199,-0.06703 0.507118,0.02089 0.08792,0.08792 -0.06835,0.150453 -0.347266,0.138965 -0.308224,-0.0127 -0.370919,-0.07539 -0.159852,-0.159853 z M 38.298449,163.33727 c 0.181901,-0.0734 0.479557,-0.0734 0.661458,0 0.181901,0.0734 0.03307,0.13345 -0.330729,0.13345 -0.363802,0 -0.51263,-0.0601 -0.330729,-0.13345 z m 3.241146,-3.89342 c 0,-0.0549 0.208359,-0.2633 0.463021,-0.46302 0.419644,-0.32911 0.429002,-0.31975 0.09989,0.0999 -0.345643,0.44073 -0.562915,0.58089 -0.562915,0.36313 z m 1.322916,-1.05833 c 0,-0.055 0.20836,-0.26331 0.463021,-0.46303 0.419644,-0.3291 0.429003,-0.31974 0.09989,0.0999 -0.345644,0.44073 -0.562916,0.58089 -0.562916,0.36313 z m 1.5875,-1.29579 c 0,-0.04 0.922735,-0.96276 2.050521,-2.05052 l 2.050521,-1.97776 -1.977753,2.05052 c -1.836893,1.90448 -2.123289,2.17125 -2.123289,1.97776 z m 13.758333,-1.61463 c 0,-0.0549 0.20836,-0.2633 0.463021,-0.46302 0.419644,-0.32911 0.429003,-0.31975 0.09989,0.0999 -0.345644,0.44073 -0.562916,0.58089 -0.562916,0.36313 z m 1.719792,-1.48761 c 0.263389,-0.29104 0.538421,-0.52916 0.611181,-0.52916 0.07276,0 -0.08321,0.23812 -0.346598,0.52916 -0.263389,0.29105 -0.53842,0.52917 -0.61118,0.52917 -0.07276,0 0.08321,-0.23812 0.346597,-0.52917 z m 6.614583,-6.35 c 2.762023,-2.76489 5.081392,-5.02708 5.154152,-5.02708 0.07276,0 -2.127545,2.26219 -4.889568,5.02708 -2.762024,2.7649 -5.081392,5.02709 -5.154152,5.02709 -0.07276,0 2.127545,-2.26219 4.889568,-5.02709 z m -17.197916,4.23334 c 0.263389,-0.29104 0.53842,-0.52917 0.611181,-0.52917 0.07276,0 -0.08321,0.23813 -0.346598,0.52917 -0.263389,0.29104 -0.53842,0.52916 -0.611181,0.52916 -0.07276,0 0.08321,-0.23812 0.346598,-0.52916 z m 2.248958,-3.01031 c 0,-0.055 0.20836,-0.26331 0.463021,-0.46303 0.419644,-0.3291 0.429002,-0.31974 0.0999,0.0999 -0.345644,0.44073 -0.562916,0.58089 -0.562916,0.36313 z m 1.993285,-2.77628 c 2.681561,-4.18812 4.808913,-9.50896 6.043394,-15.1155 1.545729,-7.0201 1.51266,-5.53995 1.424627,-63.764578 C 60.979941,17.515909 60.942598,13.719702 60.505903,11.377079 59.218884,4.47295 57.147689,-1.2994967 54.012782,-6.7193311 c -0.921308,-1.5928178 -1.279508,-2.4523927 -1.108048,-2.658989 0.535119,-0.6447799 5.051057,-2.8110229 7.695582,-3.6914829 1.522072,-0.506753 4.01756,-1.193237 5.545528,-1.525519 2.748716,-0.597754 3.011996,-0.605055 24.870833,-0.689749 24.601183,-0.09532 24.889313,-0.07949 30.061883,1.651358 3.13012,1.047405 5.30245,2.090657 7.90582,3.7967353 1.83367,1.2016593 5.68855,4.7406713 5.68855,5.2224225 0,0.1374092 -0.56555,0.5470211 -1.25677,0.9102485 -3.77255,1.9824144 -11.64939,7.6818186 -16.30549,11.7980672 -2.41771,2.1373935 -2.65533,2.2839375 -3.175,1.9580635 C 109.6152,7.3425326 103.7598,6.4100076 98.889579,7.6555995 92.741728,9.2279549 87.798781,14.243665 86.096011,20.637496 c -0.629599,2.364121 -0.638831,7.215567 -0.01812,9.525 0.879081,3.270748 2.184002,5.468209 4.796198,8.076699 3.817233,3.811816 7.298567,5.253065 12.710301,5.261977 3.45629,0.0057 5.09688,-0.346684 7.93749,-1.704862 5.8136,-2.779643 9.67217,-8.275652 10.30823,-14.682677 0.36189,-3.645319 -0.87552,-8.873023 -2.76185,-11.668033 -0.45339,-0.671798 -0.78899,-1.242378 -0.74578,-1.267957 0.0432,-0.02558 0.97154,-0.822372 2.06295,-1.770651 5.66905,-4.9256181 10.61589,-8.4564811 17.27061,-12.3270978 0.11275,-0.06557706 0.17852,-0.02108425 0.14616,0.09887291 -0.0324,0.11995715 0.39828,1.11107269 0.95698,2.20247889 1.22091,2.3850124 2.09899,4.86626 2.8558,8.069792 0.54129,2.291223 0.56627,3.108965 0.66096,21.629687 0.0598,11.702034 0.002,19.248437 -0.14661,19.248437 -0.13476,0 -0.32296,0.506016 -0.41821,1.124479 -0.25192,1.635645 -1.62325,5.959761 -2.53331,7.98811 -0.94865,2.114365 -2.76455,4.973999 -4.60376,7.249894 -0.74587,0.92296 -8.61899,8.718688 -17.49581,17.323842 -8.87683,8.605153 -18.699528,18.150083 -21.828226,21.210953 -3.128698,3.06088 -10.331979,10.08283 -16.007291,15.60434 -5.675312,5.52152 -13.057334,12.72363 -16.404492,16.00469 -3.347159,3.28106 -7.078908,6.91807 -8.292777,8.08223 l -2.207033,2.11667 z m 28.830673,-14.05716 c 3.490226,-3.4925 6.405396,-6.35 6.478157,-6.35 0.07276,0 -2.723348,2.8575 -6.213574,6.35 -3.490226,3.4925 -6.405396,6.35 -6.478157,6.35 -0.07276,0 2.723348,-2.8575 6.213574,-6.35 z m 15.478125,-15.21354 c 2.543496,-2.54662 4.684066,-4.63021 4.756826,-4.63021 0.0728,0 -1.94875,2.08359 -4.492243,4.63021 -2.543496,2.54661 -4.684069,4.6302 -4.756829,4.6302 -0.07276,0 1.94875,-2.08359 4.492246,-4.6302 z m 12.303126,-12.03855 c 2.32492,-2.32833 4.28666,-4.23333 4.35942,-4.23333 0.0728,0 -1.76992,1.905 -4.09484,4.23333 -2.32492,2.32834 -4.28666,4.23334 -4.35942,4.23334 -0.0728,0 1.76992,-1.905 4.09484,-4.23334 z m 11.64166,-11.377079 c 1.88758,-1.891771 3.49148,-3.439583 3.56424,-3.439583 0.0728,0 -1.41208,1.547812 -3.29965,3.439583 -1.88757,1.891771 -3.49148,3.439584 -3.56424,3.439584 -0.0728,0 1.41208,-1.547813 3.29965,-3.439584 z m 8.99584,-8.73125 c 0.86401,-0.873125 1.63046,-1.5875 1.70322,-1.5875 0.0728,0 -0.57462,0.714375 -1.43864,1.5875 -0.86401,0.873125 -1.63047,1.5875 -1.70323,1.5875 -0.0728,0 0.57463,-0.714375 1.43865,-1.5875 z m 2.64583,-2.910416 c 0.26339,-0.291042 0.53842,-0.529167 0.61118,-0.529167 0.0728,0 -0.0832,0.238125 -0.3466,0.529167 -0.26338,0.291041 -0.53842,0.529166 -0.61118,0.529166 -0.0728,0 0.0832,-0.238125 0.3466,-0.529166 z m 0.92604,-1.158228 c 0,-0.05494 0.20836,-0.263302 0.46302,-0.463021 0.41965,-0.329108 0.42901,-0.319749 0.0999,0.0999 -0.34565,0.440729 -0.56292,0.580887 -0.56292,0.363126 z m 7.16464,-15.664862 c 0.0127,-0.308225 0.0754,-0.370919 0.15985,-0.159853 0.0764,0.190996 0.067,0.4192 -0.0209,0.507118 -0.0879,0.08792 -0.15046,-0.06835 -0.13897,-0.347265 z m 0.28547,-1.697743 c 0,-0.363802 0.0601,-0.51263 0.13345,-0.330729 0.0734,0.181901 0.0734,0.479557 0,0.661458 -0.0734,0.181901 -0.13345,0.03307 -0.13345,-0.330729 z m 0.29487,-2.645834 c 0,-0.654843 0.0516,-0.922734 0.11466,-0.595312 0.0631,0.327422 0.0631,0.863203 0,1.190625 -0.0631,0.327422 -0.11466,0.05953 -0.11466,-0.595313 z M 101.81498,34.479672 c 0.191,-0.07643 0.4192,-0.06703 0.50712,0.02089 0.0879,0.08792 -0.0684,0.150453 -0.34726,0.138964 -0.30823,-0.0127 -0.37092,-0.07539 -0.15986,-0.159852 z m 3.43959,0 c 0.19099,-0.07643 0.4192,-0.06703 0.50712,0.02089 0.0879,0.08792 -0.0684,0.150453 -0.34727,0.138964 -0.30822,-0.0127 -0.37092,-0.07539 -0.15985,-0.159852 z m -8.297217,-2.531239 -1.045884,-1.124479 1.124479,1.045884 c 1.045754,0.972662 1.246062,1.203074 1.045884,1.203074 -0.04323,0 -0.549243,-0.506015 -1.124479,-1.124479 z m 12.580157,0.777105 c 0,-0.04553 0.38695,-0.432487 0.8599,-0.859895 l 0.85989,-0.777106 -0.7771,0.859896 c -0.72437,0.801543 -0.94269,0.981512 -0.94269,0.777105 z M 94.498037,26.987496 c 0,-0.363802 0.06005,-0.512631 0.133452,-0.33073 0.0734,0.181901 0.0734,0.479558 0,0.661459 -0.0734,0.181901 -0.133452,0.03307 -0.133452,-0.330729 z m 18.256253,0 c 0,-0.363802 0.0601,-0.512631 0.13345,-0.33073 0.0734,0.181901 0.0734,0.479558 0,0.661459 -0.0734,0.181901 -0.13345,0.03307 -0.13345,-0.330729 z m -0.0209,-3.064757 c 0.0127,-0.308225 0.0754,-0.370919 0.15985,-0.159853 0.0764,0.190996 0.067,0.4192 -0.0209,0.507118 -0.0879,0.08792 -0.15045,-0.06835 -0.13896,-0.347265 z M 94.477148,23.658155 c 0.0127,-0.308224 0.07539,-0.370919 0.159853,-0.159852 0.07643,0.190996 0.06703,0.419199 -0.02089,0.507118 -0.08792,0.08792 -0.150453,-0.06835 -0.138965,-0.347266 z m 11.835752,-0.0264 c 0.191,-0.07643 0.4192,-0.06703 0.50712,0.02089 0.0879,0.08792 -0.0683,0.150453 -0.34727,0.138965 -0.30822,-0.0127 -0.37092,-0.07539 -0.15985,-0.159853 z m -1.16615,-0.679155 -0.50403,-0.595313 0.59531,0.504028 c 0.55945,0.473662 0.71576,0.686597 0.50403,0.686597 -0.0502,0 -0.3181,-0.26789 -0.59531,-0.595312 z m 4.64429,-0.79375 c 1.09642,-1.168186 1.33397,-1.37824 1.33397,-1.179568 0,0.04246 -0.56555,0.608009 -1.25677,1.256771 l -1.25677,1.179568 z m -5.28061,-2.034906 c 0,-0.136933 0.1177,-0.32171 0.26155,-0.410617 0.14998,-0.09269 0.19434,0.01351 0.10398,0.248969 -0.17589,0.458368 -0.36553,0.542233 -0.36553,0.161648 z m 1.6007,-2.013924 c 0.64758,-0.735269 1.23121,-1.296638 1.29695,-1.247488 0.0657,0.04915 -0.4641,0.650734 -1.17743,1.336852 l -1.29695,1.247487 z m -4.56073,-1.886598 c 0.191,-0.07643 0.4192,-0.06703 0.50712,0.02089 0.0879,0.08792 -0.0683,0.150453 -0.34727,0.138964 -0.30822,-0.0127 -0.37092,-0.07539 -0.15985,-0.159852 z m 1.83555,-0.259071 c 0.1819,-0.0734 0.47955,-0.0734 0.66146,0 0.1819,0.0734 0.0331,0.133452 -0.33073,0.133452 -0.36381,0 -0.51263,-0.06005 -0.33073,-0.133452 z m 33.13906,-21.3696952 c 0,-0.07276 0.23812,-0.2597322 0.52917,-0.415493 0.29104,-0.1557608 0.52916,-0.2236702 0.52916,-0.1509098 0,0.07276 -0.23812,0.2597323 -0.52916,0.4154931 -0.29105,0.1557608 -0.52917,0.2236702 -0.52917,0.1509097 z m -1.85208,-11.5279928 c 0.15576,-0.291042 0.34273,-0.529167 0.41549,-0.529167 0.0728,0 0.005,0.238125 -0.15091,0.529167 -0.15576,0.291042 -0.34273,0.529167 -0.41549,0.529167 -0.0728,0 -0.005,-0.238125 0.15091,-0.529167 z m 39.02604,-1.852083 c 0.26339,-0.291042 0.53842,-0.529167 0.61118,-0.529167 0.0728,0 -0.0832,0.238125 -0.3466,0.529167 -0.26339,0.291041 -0.53842,0.529166 -0.61118,0.529166 -0.0728,0 0.0832,-0.238125 0.3466,-0.529166 z m 2.11666,-1.852084 c 0.26339,-0.291041 0.53842,-0.529166 0.61118,-0.529166 0.0728,0 -0.0832,0.238125 -0.34659,0.529166 -0.26339,0.291042 -0.53842,0.529167 -0.61118,0.529167 -0.0728,0 0.0832,-0.238125 0.34659,-0.529167 z m -7.27604,-0.893644 c 0,-0.05494 0.20836,-0.263302 0.46302,-0.463021 0.41965,-0.329108 0.42901,-0.319749 0.0999,0.0999 -0.34565,0.440729 -0.56292,0.580887 -0.56292,0.363126 z m 9.26042,-1.355314 c 0.34177,-0.363802 0.68094,-0.661458 0.7537,-0.661458 0.0728,0 -0.14734,0.297656 -0.48912,0.661458 -0.34177,0.363802 -0.68094,0.661458 -0.7537,0.661458 -0.0728,0 0.14734,-0.297656 0.48912,-0.661458 z m -7.54063,-0.132292 c 0.26339,-0.291041 0.53842,-0.529166 0.61118,-0.529166 0.0728,0 -0.0832,0.238125 -0.34659,0.529166 -0.26339,0.291042 -0.53842,0.529167 -0.61118,0.529167 -0.0728,0 0.0832,-0.238125 0.34659,-0.529167 z m 3.175,-3.175 c 0.26339,-0.291041 0.53842,-0.529166 0.61118,-0.529166 0.0728,0 -0.0832,0.238125 -0.34659,0.529166 -0.26339,0.291042 -0.53842,0.529167 -0.61118,0.529167 -0.0728,0 0.0832,-0.238125 0.34659,-0.529167 z m 0.92605,-1.158228 c 0,-0.05494 0.20835,-0.263301 0.46302,-0.463021 0.41964,-0.329107 0.429,-0.319749 0.0999,0.0999 -0.34564,0.440729 -0.56291,0.580887 -0.56291,0.363126 z m 7.02846,-0.771412 c 0.0994,-0.260937 0.24731,-0.407781 0.32877,-0.326319 0.0815,0.08146 1.7e-4,0.294956 -0.18065,0.474432 -0.26131,0.259362 -0.2917,0.228971 -0.14812,-0.148113 z m -37.45555,-3.726504 c 0,-0.05494 0.20836,-0.263302 0.46302,-0.463021 0.41965,-0.329108 0.42901,-0.319749 0.0999,0.0999 -0.34565,0.440729 -0.56292,0.580887 -0.56292,0.363126 z m 39.44381,-1.906529 c 0.0127,-0.308225 0.0754,-0.370919 0.15985,-0.159853 0.0764,0.190997 0.067,0.4192 -0.0209,0.507119 -0.0879,0.08792 -0.15045,-0.06835 -0.13896,-0.347266 z M 146.1823,-34.66042 c 0.26339,-0.291042 0.53842,-0.529167 0.61118,-0.529167 0.0728,0 -0.0832,0.238125 -0.3466,0.529167 -0.26338,0.291042 -0.53842,0.529167 -0.61118,0.529167 -0.0728,0 0.0832,-0.238125 0.3466,-0.529167 z m 37.52924,-2.248958 c 9.6e-4,-1.164167 0.0475,-1.607504 0.10337,-0.985194 0.0559,0.62231 0.0551,1.57481 -0.002,2.116666 -0.0569,0.541857 -0.10259,0.03269 -0.10163,-1.131472 z m -5.56226,0.132291 c 0,-0.945885 0.048,-1.332838 0.10671,-0.859896 0.0587,0.472943 0.0587,1.246849 0,1.719792 -0.0587,0.472943 -0.10671,0.08599 -0.10671,-0.859896 z m -37.9201,0.693855 c 0,-0.05494 0.20836,-0.263301 0.46302,-0.46302 0.41964,-0.329108 0.429,-0.319749 0.0999,0.09989 -0.34564,0.44073 -0.56291,0.580888 -0.56291,0.363126 z m 7.14375,0.02713 c 0,-0.04002 0.92273,-0.962757 2.05052,-2.050521 l 2.05052,-1.977753 -1.97776,2.05052 c -1.83689,1.904479 -2.12328,2.171244 -2.12328,1.977754 z m -5.55625,-1.911608 c 0.34177,-0.363802 0.68094,-0.661458 0.7537,-0.661458 0.0728,0 -0.14735,0.297656 -0.48912,0.661458 -0.34178,0.363802 -0.68094,0.661459 -0.7537,0.661459 -0.0728,0 0.14734,-0.297657 0.48912,-0.661459 z m 36.00422,-1.344965 c 0.0127,-0.308224 0.0754,-0.370919 0.15985,-0.159852 0.0764,0.190996 0.067,0.419199 -0.0209,0.507118 -0.0879,0.08792 -0.15045,-0.06835 -0.13896,-0.347266 z m -32.43235,-2.491493 c 1.30362,-1.309687 2.42975,-2.38125 2.50251,-2.38125 0.0728,0 -0.93431,1.071563 -2.23793,2.38125 -1.30362,1.309687 -2.42974,2.38125 -2.5025,2.38125 -0.0728,0 0.9343,-1.071563 2.23792,-2.38125 z m 6.74688,1.223022 c 0,-0.05494 0.20836,-0.263302 0.46302,-0.463021 0.41964,-0.329107 0.429,-0.319749 0.0999,0.09989 -0.34564,0.440729 -0.56291,0.580887 -0.56291,0.363126 z m 21.92666,-4.331876 c -0.3291,-0.419644 -0.31975,-0.429002 0.0999,-0.09989 0.44073,0.345644 0.58088,0.562916 0.36312,0.562916 -0.0549,0 -0.2633,-0.20836 -0.46302,-0.463021 z m -25.36625,0.09854 c 0,-0.05494 0.20836,-0.263302 0.46302,-0.463021 0.41965,-0.329108 0.42901,-0.319749 0.0999,0.09989 -0.34565,0.440729 -0.56292,0.580887 -0.56292,0.363126 z m 23.8125,-0.958439 c -0.23846,-0.154109 -0.2711,-0.258097 -0.0818,-0.260532 0.17331,-0.0022 0.3887,0.115011 0.47864,0.260532 0.20301,0.328487 0.11142,0.328487 -0.39688,0 z m -8.78086,-0.974491 c 0.191,-0.07643 0.4192,-0.06703 0.50712,0.02089 0.0879,0.08792 -0.0684,0.150452 -0.34726,0.138964 -0.30823,-0.0127 -0.37092,-0.07539 -0.15986,-0.159853 z m 6.08542,0 c 0.191,-0.07643 0.4192,-0.06703 0.50712,0.02089 0.0879,0.08792 -0.0684,0.150452 -0.34727,0.138964 -0.30822,-0.0127 -0.37092,-0.07539 -0.15985,-0.159853 z m 9.42987,-0.943738 -1.04589,-1.124479 1.12448,1.045884 c 1.04576,0.972662 1.24606,1.203074 1.04589,1.203074 -0.0432,0 -0.54925,-0.506016 -1.12448,-1.124479 z m -13.15057,0.668497 c 0.47294,-0.05869 1.24685,-0.05869 1.71979,0 0.47294,0.05869 0.086,0.106712 -0.8599,0.106712 -0.94588,0 -1.33284,-0.04802 -0.85989,-0.106712 z m 11.40948,-2.123705 c -0.32911,-0.419644 -0.31975,-0.429003 0.0999,-0.09989 0.44073,0.345643 0.58089,0.562915 0.36313,0.562915 -0.0549,0 -0.2633,-0.208359 -0.46302,-0.46302 z m -6.63045,-2.89272 c 0.191,-0.07643 0.4192,-0.06703 0.50712,0.02089 0.0879,0.08792 -0.0684,0.150453 -0.34726,0.138964 -0.30823,-0.0127 -0.37092,-0.07539 -0.15986,-0.159852 z m -6.75837,-0.267197 c 0.25743,-0.06708 0.61462,-0.06267 0.79375,0.0098 0.17913,0.07248 -0.0315,0.127362 -0.46806,0.12197 -0.43656,-0.0054 -0.58312,-0.06469 -0.32569,-0.131774 z m 4.88975,0.0081 c 0.1819,-0.0734 0.47956,-0.0734 0.66146,0 0.1819,0.0734 0.0331,0.133452 -0.33073,0.133452 -0.3638,0 -0.51263,-0.06005 -0.33073,-0.133452 z"
         id="path8" /><path
         style="fill:#1e1b4b;fill-opacity:1"
         d="m 36.644803,162.79563 c 5.366609,-3.06808 10.618467,-7.77192 14.541503,-13.02413 1.391928,-1.86352 4.956116,-5.40959 28.453288,-28.30862 5.457031,-5.31811 12.481718,-12.17408 15.610416,-15.23548 3.128698,-3.0614 12.9514,-12.60676 21.82823,-21.211913 8.87682,-8.605154 16.74994,-16.400882 17.49581,-17.323842 1.83921,-2.275895 3.65511,-5.135529 4.60376,-7.249894 0.91006,-2.028349 2.28139,-6.352465 2.53331,-7.98811 0.0952,-0.618463 0.29483,-1.124479 0.44351,-1.124479 0.40423,0 0.047,10.236341 -0.45482,13.033065 -0.2287,1.274592 -0.78392,3.46657 -1.23382,4.871062 -2.17293,6.783448 -4.88757,10.82594 -11.78872,17.555168 -16.60317,16.189533 -29.467816,28.785563 -47.053301,46.070803 -11.350625,11.15683 -21.439227,20.94142 -22.419117,21.74354 -3.304029,2.70459 -8.277436,5.41772 -12.373591,6.75012 -2.978985,0.96902 -7.19665,1.88788 -9.392708,2.04632 l -2.116666,0.1527 z M -92.461563,125.64735 c -2.174585,-0.31681 -3.993657,-0.87429 -6.740885,-2.06583 -2.459282,-1.06664 -4.719882,-2.47015 -4.951712,-3.07429 -0.0822,-0.21422 4.13634,-4.98832 10.5351,-11.92252 5.86971,-6.36088 13.416298,-14.55298 16.770197,-18.204664 14.36206,-15.637237 18.808414,-20.397086 19.043647,-20.386344 0.137482,0.0063 5.252479,5.670017 11.366661,12.586085 17.881585,20.226793 30.730694,34.782443 33.840317,38.334793 1.592309,1.81901 3.2562022,3.69424 3.6975399,4.16718 l 0.8024323,0.8599 -41.3930472,-0.0323 c -22.766176,-0.0178 -42.102789,-0.13567 -42.97025,-0.26205 z m 91.3614475,-2.28538 c -2.1452061,-2.46205 -12.5658205,-14.34 -22.4183605,-25.553581 l -4.60078,-5.236339 3.157899,-3.22509 c 1.736845,-1.7738 5.593133,-5.900338 8.56953,-9.170086 13.654934,-15.000749 13.1226224,-14.479264 14.4677942,-14.173542 0.8804782,0.200109 1.7173047,0.944012 4.1923963,3.72686 C 16.330771,85.541139 23.744544,93.797057 39.509883,111.20205 l 2.106888,2.32601 -0.490906,1.62135 c -1.646065,5.43658 -6.878512,9.11449 -14.799812,10.40283 -1.826197,0.29702 -5.038186,0.38754 -13.779859,0.38836 l -11.3986103,10e-4 z M -29.304071,54.484169 c -2.210343,-0.382548 -4.670545,-1.645229 -6.377084,-3.272991 -2.702531,-2.577779 -3.908195,-5.619294 -3.671092,-9.26103 0.248098,-3.810628 2.107056,-7.225876 5.099497,-9.368716 5.016048,-3.591913 11.273388,-3.083621 15.700591,1.275378 5.478418,5.39402 4.54068,14.325209 -1.974977,18.810042 -2.203803,1.516914 -5.986813,2.300209 -8.776935,1.817317 z M 100.14115,43.289189 C 93.41273,42.001411 87.8691,36.826968 86.077887,30.162496 c -0.620707,-2.309433 -0.611475,-7.160879 0.01812,-9.525 1.70277,-6.393831 6.645717,-11.4095411 12.793568,-12.9818965 4.870225,-1.2455919 10.725625,-0.3130669 15.046095,2.3962245 0.51967,0.325874 0.75729,0.17933 3.175,-1.9580635 5.68986,-5.0301559 12.09569,-9.5177166 18.39115,-12.883803 4.94198,-2.6424014 6.92661,-3.5669345 14.25236,-6.6393975 11.36838,-4.767971 17.45941,-8.370216 22.24583,-13.156224 4.45607,-4.455696 6.13648,-7.775245 6.17149,-12.191423 0.0174,-2.189681 -0.0704,-2.70701 -0.68125,-4.01509 -0.77966,-1.669641 -2.51054,-3.690067 -3.92357,-4.579929 -2.72741,-1.717589 -7.59965,-2.130306 -11.36776,-0.962938 -9.31129,2.884649 -18.12243,12.154025 -26.81646,28.211082 -1.10309,2.037292 -2.57094,4.954323 -3.2619,6.482292 -0.69096,1.527968 -1.28445,2.8198805 -1.31888,2.8709156 -0.0344,0.051035 -0.98199,-0.5107792 -2.10569,-1.2484756 -1.1237,-0.737697 -2.1618,-1.380839 -2.3069,-1.429204 -0.32081,-0.106937 3.58056,-8.21051 5.88885,-12.231778 8.96234,-15.613296 18.34468,-24.687928 28.74738,-27.804572 2.99041,-0.895925 7.9205,-1.032593 10.68927,-0.296318 5.78113,1.537323 10.08344,5.664547 11.5159,11.047262 0.21124,0.793767 0.38548,2.525494 0.38721,3.848284 0.007,5.634045 -2.51764,10.867949 -7.78368,16.134266 -5.13105,5.131334 -12.62809,9.535107 -24.75693,14.5422669 -12.93556,5.34020279 -21.13865,10.315783 -30.69166,18.6160151 -1.09141,0.948279 -2.01973,1.745072 -2.06295,1.770651 -0.0432,0.02558 0.29239,0.596159 0.74578,1.267957 1.14763,1.700466 2.28222,4.959466 2.64239,7.590011 1.07089,7.821294 -3.01105,15.336185 -10.18877,18.757624 -1.16416,0.554929 -2.69014,1.145303 -3.39105,1.311941 -2.04776,0.486842 -5.93918,0.576467 -7.98968,0.184013 z m 7.73295,-9.505871 c 1.97849,-1.01761 3.04167,-2.047674 4.06898,-3.942233 0.85493,-1.576669 0.90172,-1.800264 0.90172,-4.308798 0,-2.194589 -0.1028,-2.868784 -0.60277,-3.95309 l -0.60276,-1.307257 -1.5139,1.491128 c -2.27151,2.237339 -3.64517,2.497692 -4.95639,0.939395 -1.13963,-1.354373 -0.86317,-2.434261 1.15769,-4.522183 1.41395,-1.460859 1.34967,-1.581361 -1.07095,-2.007745 -4.10952,-0.723877 -8.421806,1.50684 -10.075965,5.212231 -0.791784,1.773633 -0.935779,5.084404 -0.307948,7.08044 0.830017,2.638841 2.801924,4.704564 5.413363,5.670907 2.14,0.791893 5.68366,0.627156 7.58893,-0.352795 z"
         id="path7" /></g></g></svg>
